<svg width="127" height="37" viewBox="0 0 127 37" fill="none" xmlns="http://www.w3.org/2000/svg">
<path d="M11.032 29.368C8.89867 29.368 7.02133 29.0693 5.4 28.472C3.8 27.896 2.552 27.1387 1.656 26.2C0.76 25.2613 0.312 24.2907 0.312 23.288C0.312 22.328 0.76 21.4107 1.656 20.536C2.552 19.6613 3.93867 18.9573 5.816 18.424C6.17867 18.3173 6.57333 18.2213 7 18.136C7.448 18.0293 7.864 17.944 8.248 17.88C8.632 17.7947 8.90933 17.752 9.08 17.752C9.272 17.752 9.368 17.8587 9.368 18.072C9.368 18.2427 9.272 18.3493 9.08 18.392C6.22133 18.7973 4.152 19.4587 2.872 20.376C1.592 21.2933 0.952 22.264 0.952 23.288C0.952 24.184 1.37867 25.048 2.232 25.88C3.08533 26.712 4.26933 27.3947 5.784 27.928C7.29867 28.4613 9.048 28.728 11.032 28.728C12.7813 28.728 14.52 28.5253 16.248 28.12C17.9973 27.736 19.5867 27.1813 21.016 26.456C22.4667 25.7307 23.6187 24.8667 24.472 23.864C25.3467 22.8613 25.784 21.7627 25.784 20.568C25.784 19.736 25.528 18.904 25.016 18.072C24.504 17.2187 23.576 16.4187 22.232 15.672C20.9093 14.904 18.9893 14.2213 16.472 13.624C14.488 13.1333 13.08 12.568 12.248 11.928C11.4373 11.288 11.032 10.616 11.032 9.912C11.032 9.208 11.3733 8.51467 12.056 7.832C12.76 7.14933 13.6347 6.56267 14.68 6.072C15.3413 5.752 16.2373 5.47467 17.368 5.24C18.4987 5.00533 19.6613 4.888 20.856 4.888C21.88 4.888 22.8613 5.00533 23.8 5.24C24.7387 5.45333 25.528 5.83733 26.168 6.392C26.808 6.92533 27.192 7.672 27.32 8.632C27.3413 8.888 27.48 9.016 27.736 9.016C27.9067 9.016 28.088 8.94133 28.28 8.792C28.4933 8.62133 28.6107 8.45067 28.632 8.28C28.7173 7.42667 28.5573 6.712 28.152 6.136C27.768 5.56 27.2133 5.10133 26.488 4.76C25.7627 4.39733 24.9413 4.14133 24.024 3.992C23.1067 3.84267 22.1467 3.768 21.144 3.768C20.1627 3.768 19.192 3.832 18.232 3.96C17.2933 4.06667 16.4293 4.216 15.64 4.408C14.872 4.6 14.264 4.81333 13.816 5.048C12.3867 5.77333 11.2133 6.616 10.296 7.576C9.4 8.536 8.952 9.48533 8.952 10.424C8.952 11.2773 9.38933 12.088 10.264 12.856C11.1387 13.6027 12.568 14.2213 14.552 14.712C16.8133 15.2453 18.6053 15.8427 19.928 16.504C21.272 17.1653 22.232 17.8693 22.808 18.616C23.4053 19.3627 23.704 20.1307 23.704 20.92C23.704 21.816 23.3947 22.616 22.776 23.32C22.1573 24.024 21.3573 24.6427 20.376 25.176C19.3947 25.688 18.3387 26.1253 17.208 26.488C16.0987 26.8293 15.0427 27.0853 14.04 27.256C13.0373 27.4267 12.2053 27.512 11.544 27.512C9.624 27.512 8.03467 27.3093 6.776 26.904C5.53867 26.4773 4.61067 25.944 3.992 25.304C3.39467 24.6427 3.096 23.9707 3.096 23.288C3.096 22.648 3.34133 22.04 3.832 21.464C4.344 20.888 5.08 20.4293 6.04 20.088C7.02133 19.7253 8.216 19.544 9.624 19.544C9.83733 19.544 9.944 19.6507 9.944 19.864C9.944 20.0773 9.83733 20.184 9.624 20.184C7.704 20.184 6.24267 20.504 5.24 21.144C4.25867 21.7627 3.768 22.4773 3.768 23.288C3.768 23.864 4.04533 24.4293 4.6 24.984C5.15467 25.5387 6.008 25.9973 7.16 26.36C8.312 26.7013 9.77333 26.872 11.544 26.872C12.2267 26.872 13.0587 26.7867 14.04 26.616C15.0213 26.4453 16.0347 26.2 17.08 25.88C18.1253 25.5387 19.096 25.1227 19.992 24.632C20.9093 24.1413 21.6453 23.5867 22.2 22.968C22.776 22.3493 23.064 21.6667 23.064 20.92C23.064 20.3013 22.808 19.672 22.296 19.032C21.8053 18.392 20.9307 17.752 19.672 17.112C18.4347 16.472 16.6747 15.8853 14.392 15.352C12.1947 14.8187 10.6267 14.1253 9.688 13.272C8.77067 12.4187 8.312 11.512 8.312 10.552C8.312 9.80533 8.536 9.05867 8.984 8.312C9.45333 7.56533 10.0827 6.86133 10.872 6.2C11.6827 5.53867 12.5787 4.96266 13.56 4.472C14.0507 4.23733 14.6907 4.024 15.48 3.832C16.2693 3.61867 17.144 3.448 18.104 3.32C19.0853 3.192 20.0773 3.128 21.08 3.128C22.1467 3.128 23.1813 3.21333 24.184 3.384C25.208 3.55467 26.1147 3.84267 26.904 4.248C27.7147 4.65333 28.3333 5.18667 28.76 5.848C29.1867 6.50933 29.3573 7.34133 29.272 8.344C29.2507 8.70667 29.0693 9.016 28.728 9.272C28.408 9.528 28.0667 9.656 27.704 9.656C27.4693 9.656 27.2453 9.58133 27.032 9.432C26.84 9.28267 26.7227 9.03733 26.68 8.696C26.5733 7.90667 26.2213 7.288 25.624 6.84C25.048 6.37067 24.3227 6.02933 23.448 5.816C22.5947 5.60266 21.688 5.496 20.728 5.496C19.6613 5.496 18.6053 5.60266 17.56 5.816C16.5147 6.02933 15.64 6.30667 14.936 6.648C13.9973 7.11733 13.2187 7.62933 12.6 8.184C11.9813 8.73867 11.672 9.304 11.672 9.88C11.672 10.4347 12.0453 10.9893 12.792 11.544C13.56 12.0773 14.8293 12.5573 16.6 12.984C19.1387 13.5813 21.112 14.2853 22.52 15.096C23.9493 15.9067 24.952 16.7707 25.528 17.688C26.1253 18.6053 26.424 19.5653 26.424 20.568C26.424 21.656 26.1147 22.6587 25.496 23.576C24.8987 24.4933 24.0667 25.3147 23 26.04C21.9547 26.744 20.7707 27.3413 19.448 27.832C18.1253 28.344 16.7387 28.728 15.288 28.984C13.8373 29.24 12.4187 29.368 11.032 29.368ZM36.7063 14.136C36.1943 14.136 35.7569 13.9547 35.3943 13.592C35.0316 13.2293 34.8503 12.792 34.8503 12.28C34.8503 11.7467 35.0316 11.2987 35.3943 10.936C35.7569 10.5733 36.1943 10.392 36.7063 10.392C37.2396 10.392 37.6876 10.5733 38.0503 10.936C38.4129 11.2987 38.5943 11.7467 38.5943 12.28C38.5943 12.792 38.4129 13.2293 38.0503 13.592C37.6876 13.9547 37.2396 14.136 36.7063 14.136ZM36.7063 13.496C37.0689 13.496 37.3676 13.3787 37.6023 13.144C37.8369 12.9093 37.9543 12.6213 37.9543 12.28C37.9543 11.9173 37.8369 11.6187 37.6023 11.384C37.3676 11.1493 37.0689 11.032 36.7063 11.032C36.3649 11.032 36.0769 11.1493 35.8423 11.384C35.6076 11.6187 35.4903 11.9173 35.4903 12.28C35.4903 12.6213 35.6076 12.9093 35.8423 13.144C36.0769 13.3787 36.3649 13.496 36.7063 13.496ZM32.3863 25.208C31.9809 25.208 31.6929 25.0587 31.5223 24.76C31.3729 24.4613 31.2983 24.1307 31.2983 23.768C31.2983 23.4693 31.3729 23.0427 31.5223 22.488C31.6716 21.9333 31.8743 21.336 32.1302 20.696C32.4076 20.0347 32.7169 19.4267 33.0583 18.872C33.3996 18.296 33.7516 17.8373 34.1143 17.496C34.3063 17.304 34.5089 17.1333 34.7223 16.984C34.9356 16.6853 35.0423 16.408 35.0423 16.152C35.0423 15.832 34.8929 15.5867 34.5943 15.416C34.3169 15.224 34.0076 15.128 33.6663 15.128C33.3036 15.128 33.0263 15.2133 32.8343 15.384C32.5356 15.6613 32.2156 15.992 31.8743 16.376C31.5543 16.7387 31.2129 17.1653 30.8503 17.656C30.4663 18.1467 30.0609 18.68 29.6343 19.256C29.2076 19.8107 28.7169 20.408 28.1623 21.048C28.0983 21.1333 28.0129 21.176 27.9062 21.176C27.7996 21.176 27.7142 21.112 27.6502 20.984C27.5649 20.856 27.5649 20.7387 27.6502 20.632C28.2049 20.0133 28.6956 19.416 29.1223 18.84C29.5703 18.264 29.9756 17.7413 30.3383 17.272C30.7223 16.7813 31.0743 16.344 31.3943 15.96C31.7356 15.5547 32.0769 15.2027 32.4183 14.904C32.7383 14.6053 33.1329 14.456 33.6023 14.456C34.1569 14.456 34.6583 14.648 35.1063 15.032C35.5543 15.3947 35.7783 15.8213 35.7783 16.312C35.7783 16.7387 35.5543 17.1333 35.1063 17.496L34.9463 17.624C34.7329 17.816 34.5089 18.0187 34.2743 18.232C34.0609 18.4453 33.8796 18.68 33.7303 18.936C33.4956 19.4267 33.2289 19.9707 32.9303 20.568C32.6529 21.144 32.4076 21.72 32.1943 22.296C32.0023 22.872 31.9062 23.384 31.9062 23.832C31.9062 24.3227 32.1089 24.568 32.5143 24.568C32.7063 24.568 32.9409 24.5147 33.2183 24.408C33.8796 24.1307 34.5623 23.6933 35.2663 23.096C35.9703 22.4987 36.7276 21.6773 37.5383 20.632C37.6023 20.5467 37.6769 20.504 37.7623 20.504C37.8903 20.504 37.9969 20.568 38.0823 20.696C38.1676 20.8027 38.1569 20.9093 38.0503 21.016C37.3889 21.8693 36.7703 22.5627 36.1943 23.096C35.6396 23.6293 34.9889 24.1093 34.2423 24.536C33.8369 24.7707 33.4849 24.9413 33.1863 25.048C32.8876 25.1547 32.6209 25.208 32.3863 25.208ZM32.2263 27.16C31.1809 27.16 30.3596 26.7973 29.7623 26.072C29.1863 25.3467 28.9409 24.4507 29.0263 23.384C29.0476 23.064 29.1436 22.616 29.3143 22.04C29.4849 21.4427 29.6983 20.8453 29.9543 20.248C30.2316 19.6293 30.5089 19.128 30.7863 18.744C30.8503 18.6587 30.9356 18.616 31.0423 18.616C31.1489 18.616 31.2449 18.6693 31.3303 18.776C31.4156 18.8827 31.4049 19 31.2983 19.128C31.0423 19.4693 30.7863 19.928 30.5303 20.504C30.2956 21.08 30.0929 21.6453 29.9223 22.2C29.7729 22.7547 29.6876 23.1707 29.6663 23.448C29.6023 24.2373 29.7943 24.952 30.2423 25.592C30.6903 26.232 31.3623 26.552 32.2583 26.552C32.8129 26.552 33.4636 26.392 34.2103 26.072C34.9569 25.7307 35.7676 25.1653 36.6423 24.376C36.6849 24.3333 36.7489 24.312 36.8343 24.312C36.9836 24.312 37.0903 24.3867 37.1543 24.536C37.2396 24.664 37.2183 24.7813 37.0903 24.888C36.1729 25.6987 35.2983 26.2853 34.4663 26.648C33.6556 26.9893 32.9089 27.16 32.2263 27.16ZM37.7812 21.176C37.6746 21.176 37.5892 21.112 37.5252 20.984C37.4399 20.856 37.4399 20.7387 37.5252 20.632C37.9519 20.1413 38.3466 19.6293 38.7093 19.096C39.0719 18.5627 39.4239 18.0293 39.7653 17.496C40.3413 16.6427 40.9706 15.7253 41.6533 14.744C42.3573 13.7627 43.1039 12.792 43.8933 11.832C44.7039 10.872 45.5359 9.99733 46.3893 9.208C47.2426 8.39733 48.1066 7.74667 48.9813 7.256C49.7279 6.85067 50.3786 6.648 50.9333 6.648C51.4879 6.648 51.9039 6.82933 52.1813 7.192C52.4799 7.53333 52.6293 7.98133 52.6293 8.536C52.6293 8.792 52.5973 9.05867 52.5333 9.336C52.4906 9.592 52.4053 9.86933 52.2773 10.168C52.2133 10.3173 51.9679 10.648 51.5413 11.16C51.1359 11.6507 50.6239 12.2587 50.0053 12.984C49.3866 13.688 48.7253 14.424 48.0213 15.192C47.3386 15.96 46.6773 16.696 46.0373 17.4C45.3973 18.104 44.8426 18.6907 44.3733 19.16C43.9253 19.6293 43.6373 19.9173 43.5093 20.024C43.4453 20.088 43.3813 20.12 43.3173 20.12C43.0826 20.12 42.9653 19.992 42.9653 19.736C42.9653 19.672 43.0079 19.5973 43.0933 19.512C43.2213 19.4053 43.5093 19.1173 43.9573 18.648C44.4053 18.1787 44.9493 17.6027 45.5893 16.92C46.2293 16.2373 46.8906 15.5227 47.5733 14.776C48.2559 14.008 48.8959 13.2827 49.4933 12.6C50.1119 11.896 50.6239 11.2987 51.0293 10.808C51.4346 10.3173 51.6586 10.0187 51.7013 9.912C51.9146 9.42133 52.0213 8.952 52.0213 8.504C52.0213 8.14133 51.9253 7.85333 51.7333 7.64C51.5626 7.40533 51.2959 7.288 50.9333 7.288C50.4853 7.288 49.9413 7.46933 49.3013 7.832C48.4693 8.30133 47.6373 8.93067 46.8053 9.72C45.9733 10.488 45.1626 11.352 44.3733 12.312C43.5839 13.2507 42.8479 14.2 42.1653 15.16C41.4826 16.12 40.8639 17.016 40.3093 17.848C39.9466 18.3813 39.5839 18.9253 39.2213 19.48C38.8586 20.0347 38.4639 20.5573 38.0373 21.048C37.9733 21.1333 37.8879 21.176 37.7812 21.176ZM41.0773 25.016C40.4159 25.016 39.9466 24.8773 39.6693 24.6C39.4133 24.3227 39.2853 23.9813 39.2853 23.576C39.2853 23.1493 39.3813 22.6907 39.5733 22.2C39.7866 21.688 39.9999 21.2507 40.2133 20.888C40.5333 20.3333 40.9706 19.672 41.5253 18.904C42.0799 18.136 42.6879 17.336 43.3493 16.504C44.0319 15.6507 44.7146 14.8293 45.3973 14.04C46.1013 13.2507 46.7626 12.5573 47.3813 11.96C47.9999 11.3413 48.5119 10.8827 48.9173 10.584C48.9599 10.5413 49.0239 10.52 49.1093 10.52C49.3226 10.52 49.4293 10.6267 49.4293 10.84C49.4293 10.9467 49.3866 11.032 49.3013 11.096C48.8959 11.3733 48.3946 11.8107 47.7973 12.408C47.1999 13.0053 46.5599 13.6987 45.8773 14.488C45.1946 15.256 44.5119 16.056 43.8293 16.888C43.1679 17.72 42.5599 18.5093 42.0052 19.256C41.4719 20.0027 41.0559 20.6533 40.7573 21.208C40.6079 21.4853 40.4266 21.8373 40.2133 22.264C39.9999 22.6907 39.8932 23.0853 39.8932 23.448C39.8932 23.7253 39.9786 23.9493 40.1493 24.12C40.3199 24.2907 40.6293 24.376 41.0773 24.376C41.6533 24.376 42.3146 24.2373 43.0613 23.96C43.8293 23.6827 44.6079 23.2667 45.3973 22.712C46.1866 22.136 46.9119 21.432 47.5733 20.6C47.6373 20.5147 47.7119 20.472 47.7973 20.472C47.9253 20.472 48.0213 20.536 48.0853 20.664C48.1706 20.7707 48.1599 20.888 48.0533 21.016C47.3706 21.8907 46.6133 22.6267 45.7812 23.224C44.9493 23.8213 44.1173 24.2693 43.2853 24.568C42.4746 24.8667 41.7386 25.016 41.0773 25.016ZM40.7893 27C39.7226 27 38.8159 26.776 38.0693 26.328C37.3439 25.8587 36.9812 25.176 36.9812 24.28C36.9812 24.0453 37.0879 23.928 37.3012 23.928C37.5146 23.928 37.6212 24.0453 37.6212 24.28C37.6212 24.8773 37.9306 25.3787 38.5493 25.784C39.1893 26.168 39.9999 26.36 40.9813 26.36C41.7919 26.36 42.6773 26.1893 43.6373 25.848C44.6186 25.5067 45.5786 24.9413 46.5173 24.152C46.5599 24.1093 46.6239 24.088 46.7093 24.088C46.9226 24.088 47.0293 24.1947 47.0293 24.408C47.0293 24.5147 46.9866 24.6 46.9013 24.664C45.9839 25.4533 44.9813 26.04 43.8933 26.424C42.8053 26.808 41.7706 27 40.7893 27ZM55.3965 28.248C55.0552 28.248 54.7992 28.1307 54.6285 27.896C54.4578 27.6827 54.3725 27.4267 54.3725 27.128C54.3725 26.7653 54.4685 26.4453 54.6605 26.168C54.7672 25.9973 54.8845 25.848 55.0125 25.72C55.1618 25.5707 55.3005 25.4427 55.4285 25.336C56.0045 24.1413 56.4952 22.8293 56.9005 21.4C57.3058 19.9493 57.6045 18.4667 57.7965 16.952C58.0098 15.416 58.1165 13.944 58.1165 12.536C58.1165 11.1067 58.0098 9.79467 57.7965 8.6C57.5832 7.40533 57.2525 6.41333 56.8045 5.624C56.3778 4.856 55.8765 4.29067 55.3005 3.928C54.7458 3.56533 54.1912 3.384 53.6365 3.384C52.8472 3.384 52.1538 3.72533 51.5565 4.408C50.9805 5.06933 50.6925 5.99733 50.6925 7.192C50.6925 7.91733 50.8312 8.728 51.1085 9.624C51.3858 10.4987 51.8445 11.448 52.4845 12.472C53.0605 13.3893 53.6898 14.1573 54.3725 14.776C55.0552 15.3733 55.8872 15.8853 56.8685 16.312C56.9752 16.376 57.1032 16.44 57.2525 16.504C57.4018 16.568 57.5192 16.664 57.6045 16.792C57.6685 16.92 57.7005 17.0373 57.7005 17.144C57.7005 17.336 57.6365 17.5067 57.5085 17.656C57.3805 17.784 57.2738 17.8693 57.1885 17.912C56.7832 18.1467 56.3885 18.264 56.0045 18.264C55.4072 18.264 54.7778 18.072 54.1165 17.688C53.4765 17.304 52.8578 16.8347 52.2605 16.28C51.6632 15.704 51.1298 15.128 50.6605 14.552C50.2125 13.9547 49.8712 13.464 49.6365 13.08C48.9752 12.0347 48.4952 11.0213 48.1965 10.04C47.9192 9.05867 47.7805 8.12 47.7805 7.224C47.7805 5.88 48.0578 4.696 48.6125 3.672C49.1672 2.62667 49.8925 1.816 50.7885 1.24C51.6845 0.642665 52.6552 0.343998 53.7005 0.343998C54.6818 0.343998 55.6632 0.631998 56.6445 1.208C57.6472 1.784 58.5645 2.73333 59.3965 4.056C60.0152 5.03733 60.4418 6.18933 60.6765 7.512C60.9325 8.83467 61.0605 10.2 61.0605 11.608C61.0605 13.144 60.9538 14.6587 60.7405 16.152C60.5272 17.624 60.2925 18.9253 60.0365 20.056C60.0152 20.2267 59.9085 20.312 59.7165 20.312C59.6312 20.312 59.5458 20.28 59.4605 20.216C59.3965 20.1307 59.3752 20.0347 59.3965 19.928C59.6738 18.7973 59.9085 17.5067 60.1005 16.056C60.3138 14.584 60.4205 13.1013 60.4205 11.608C60.4205 10.2427 60.3032 8.93067 60.0685 7.672C59.8338 6.41333 59.4285 5.32533 58.8525 4.408C58.0845 3.21333 57.2418 2.34933 56.3245 1.816C55.4285 1.26133 54.5432 0.983999 53.6685 0.983999C52.7512 0.983999 51.8872 1.25067 51.0765 1.784C50.2872 2.31733 49.6472 3.05333 49.1565 3.992C48.6872 4.93067 48.4525 6.008 48.4525 7.224C48.4525 8.07733 48.5912 8.97333 48.8685 9.912C49.1458 10.8293 49.5832 11.7787 50.1805 12.76C50.3725 13.08 50.6818 13.5067 51.1085 14.04C51.5565 14.5733 52.0578 15.1173 52.6125 15.672C53.1672 16.2267 53.7325 16.696 54.3085 17.08C54.9058 17.4427 55.4712 17.624 56.0045 17.624C56.3458 17.624 56.6338 17.5493 56.8685 17.4C56.9752 17.3147 57.0285 17.2507 57.0285 17.208C57.0498 17.1653 57.0605 17.1333 57.0605 17.112C56.9112 17.0053 56.6445 16.8773 56.2605 16.728C55.8978 16.5573 55.6098 16.4187 55.3965 16.312C54.7565 15.928 54.1165 15.4053 53.4765 14.744C52.8578 14.0613 52.2818 13.2933 51.7485 12.44C51.2365 11.5867 50.8205 10.7013 50.5005 9.784C50.2018 8.86667 50.0525 7.97067 50.0525 7.096C50.0525 6.456 50.1485 5.848 50.3405 5.272C50.5538 4.67467 50.8952 4.152 51.3645 3.704C52.0045 3.064 52.7725 2.744 53.6685 2.744C54.3298 2.744 54.9912 2.95733 55.6525 3.384C56.3138 3.78933 56.8898 4.42933 57.3805 5.304C57.8498 6.136 58.1912 7.18133 58.4045 8.44C58.6392 9.69867 58.7565 11.064 58.7565 12.536C58.7565 14.008 58.6498 15.5333 58.4365 17.112C58.2232 18.6693 57.9032 20.1947 57.4765 21.688C57.0712 23.16 56.5698 24.4933 55.9725 25.688L55.9085 25.784C55.7165 25.9333 55.5138 26.1253 55.3005 26.36C55.1085 26.5733 55.0125 26.8187 55.0125 27.096C55.0125 27.5227 55.2258 27.672 55.6525 27.544C56.2285 27.3947 56.9005 27.0107 57.6685 26.392C58.4365 25.752 59.2365 24.9733 60.0685 24.056C60.9005 23.1173 61.7112 22.104 62.5005 21.016C63.2898 19.928 63.9832 18.8507 64.5805 17.784C65.4765 16.2267 66.3405 14.6693 67.1725 13.112C68.0258 11.5333 69.0072 10.0293 70.1165 8.6C70.9485 7.512 71.8658 6.50933 72.8685 5.592C73.8712 4.65333 74.9592 3.90667 76.1325 3.352C77.3272 2.776 78.6072 2.47733 79.9725 2.456C80.2072 2.456 80.3885 2.41333 80.5165 2.328C80.6445 2.22133 80.7085 2.11467 80.7085 2.008C80.7085 1.752 80.5165 1.624 80.1325 1.624C78.3192 1.58133 76.6978 1.86933 75.2685 2.488C73.8605 3.10667 72.6018 3.96 71.4925 5.048C70.3832 6.136 69.3805 7.352 68.4845 8.696C67.5885 10.04 66.7565 11.4267 65.9885 12.856C65.2205 14.2853 64.4632 15.64 63.7165 16.92C63.0978 17.9867 62.4578 18.968 61.7965 19.864C61.1352 20.76 60.4205 21.4853 59.6525 22.04C59.6098 22.0827 59.5458 22.104 59.4605 22.104C59.2472 22.104 59.1405 21.9973 59.1405 21.784C59.1405 21.6773 59.1832 21.592 59.2685 21.528C59.9725 21.016 60.6338 20.3333 61.2525 19.48C61.8925 18.6267 62.5218 17.6667 63.1405 16.6C63.9085 15.256 64.6872 13.8587 65.4765 12.408C66.2872 10.936 67.1512 9.51733 68.0685 8.152C69.0072 6.78666 70.0418 5.56 71.1725 4.472C72.3245 3.36267 73.6365 2.49867 75.1085 1.88C76.5805 1.24 78.2552 0.941332 80.1325 0.983999C80.5592 0.983999 80.8685 1.09067 81.0605 1.304C81.2525 1.51733 81.3485 1.74133 81.3485 1.976C81.3485 2.25333 81.2312 2.50933 80.9965 2.744C80.7832 2.95733 80.4418 3.07467 79.9725 3.096C78.5005 3.11733 77.1352 3.48 75.8765 4.184C74.6392 4.86666 73.4978 5.76267 72.4525 6.872C71.4285 7.96 70.4898 9.13333 69.6365 10.392C68.8045 11.6293 68.0685 12.8133 67.4285 13.944C66.9592 14.7547 66.5325 15.5227 66.1485 16.248C65.7858 16.952 65.4552 17.5707 65.1565 18.104C64.5592 19.1493 63.8552 20.2267 63.0445 21.336C62.2552 22.4453 61.4232 23.4907 60.5485 24.472C59.6952 25.4533 58.8525 26.2747 58.0205 26.936C57.2098 27.5973 56.4738 28.0133 55.8125 28.184C55.7272 28.2053 55.6525 28.216 55.5885 28.216C55.5245 28.2373 55.4605 28.248 55.3965 28.248ZM68.8695 25.112C68.3575 25.112 68.0162 24.9093 67.8455 24.504C67.6962 24.0773 67.6215 23.7253 67.6215 23.448C67.6215 22.9147 67.8028 22.2853 68.1655 21.56C68.5282 20.8347 68.9975 20.12 69.5735 19.416C70.1495 18.712 70.7682 18.1253 71.4295 17.656C72.0908 17.1867 72.7202 16.952 73.3175 16.952C73.6162 16.952 73.7655 17.0587 73.7655 17.272C73.7655 17.3573 73.7335 17.4427 73.6695 17.528C73.6055 17.592 73.5202 17.6133 73.4135 17.592C72.9442 17.5493 72.4108 17.7413 71.8135 18.168C71.2375 18.5733 70.6722 19.1067 70.1175 19.768C69.5842 20.408 69.1362 21.0587 68.7735 21.72C68.4322 22.3813 68.2615 22.9573 68.2615 23.448C68.2615 23.7467 68.3148 23.992 68.4215 24.184C68.5282 24.376 68.6775 24.472 68.8695 24.472C69.2322 24.472 69.6482 24.2587 70.1175 23.832C70.6082 23.384 71.1095 22.8293 71.6215 22.168C72.1335 21.4853 72.6242 20.7813 73.0935 20.056C73.5842 19.3093 74.0108 18.6373 74.3735 18.04C74.7575 17.4213 75.0455 16.9627 75.2375 16.664C75.6428 16.0667 76.0482 15.6507 76.4535 15.416C76.8588 15.16 77.2322 15.032 77.5735 15.032C77.9575 15.032 78.2668 15.1493 78.5015 15.384C78.7575 15.6187 78.8855 15.9173 78.8855 16.28C78.8855 16.6 78.7682 16.9413 78.5335 17.304C78.3628 17.56 78.0855 17.9867 77.7015 18.584C77.3175 19.16 76.9228 19.7893 76.5175 20.472C76.1122 21.1333 75.7708 21.7413 75.4935 22.296C75.1948 22.936 75.0455 23.448 75.0455 23.832C75.0455 24.2587 75.2588 24.472 75.6855 24.472C76.0695 24.472 76.4962 24.344 76.9655 24.088C77.4562 23.832 77.9468 23.5013 78.4375 23.096C78.9282 22.6907 79.3868 22.2747 79.8135 21.848C80.2402 21.4 80.5922 20.9947 80.8695 20.632C80.9335 20.5467 81.0082 20.504 81.0935 20.504C81.2215 20.504 81.3175 20.568 81.3815 20.696C81.4668 20.8027 81.4668 20.9093 81.3815 21.016C81.1042 21.4213 80.7202 21.8587 80.2295 22.328C79.7602 22.7973 79.2482 23.2453 78.6935 23.672C78.1388 24.0987 77.5842 24.4507 77.0295 24.728C76.4748 24.984 75.9842 25.112 75.5575 25.112C75.1522 25.112 74.8535 24.9947 74.6615 24.76C74.4908 24.5253 74.4055 24.2267 74.4055 23.864C74.4055 23.416 74.5335 22.904 74.7895 22.328C75.0668 21.7307 75.4082 21.08 75.8135 20.376C76.2402 19.6507 76.6562 18.9787 77.0615 18.36C77.4882 17.72 77.8082 17.24 78.0215 16.92C78.1708 16.7067 78.2455 16.4933 78.2455 16.28C78.2455 15.8747 78.0322 15.672 77.6055 15.672C77.3708 15.672 77.0828 15.7787 76.7415 15.992C76.4215 16.2053 76.0908 16.5573 75.7495 17.048C75.2802 17.752 74.7575 18.5627 74.1815 19.48C73.6268 20.3973 73.0615 21.2613 72.4855 22.072C71.9095 22.8613 71.3122 23.5653 70.6935 24.184C70.0962 24.8027 69.4882 25.112 68.8695 25.112ZM66.4375 21.176C66.3308 21.176 66.2455 21.1227 66.1815 21.016C66.0962 20.9093 66.0962 20.792 66.1815 20.664C66.5442 20.152 66.9602 19.5973 67.4295 19C67.9202 18.3813 68.4642 17.8053 69.0615 17.272C69.6588 16.7173 70.2988 16.2693 70.9815 15.928C71.6642 15.5653 72.3788 15.384 73.1255 15.384C73.3602 15.384 73.5948 15.416 73.8295 15.48C74.0642 15.5227 74.2882 15.5867 74.5015 15.672C74.6295 15.736 74.6935 15.832 74.6935 15.96C74.6935 16.0453 74.6508 16.1307 74.5655 16.216C74.4802 16.28 74.3735 16.2907 74.2455 16.248C74.2455 16.248 74.2135 16.2373 74.1495 16.216C74.0855 16.1947 74.0002 16.1733 73.8935 16.152C73.7868 16.1093 73.6695 16.0773 73.5415 16.056C73.4135 16.0347 73.2748 16.024 73.1255 16.024C72.2508 16.024 71.4188 16.2907 70.6295 16.824C69.8402 17.3573 69.1042 18.008 68.4215 18.776C67.7602 19.544 67.1842 20.2907 66.6935 21.016C66.6295 21.1227 66.5442 21.176 66.4375 21.176ZM74.5335 27.16C73.5735 27.16 72.8802 26.904 72.4535 26.392C72.0482 25.8587 71.8455 25.2827 71.8455 24.664C71.8455 24.152 71.9735 23.6613 72.2295 23.192C72.2935 23.0853 72.3895 23.032 72.5175 23.032C72.6242 23.032 72.7095 23.0853 72.7735 23.192C72.8588 23.2773 72.8695 23.384 72.8055 23.512C72.5922 23.896 72.4855 24.28 72.4855 24.664C72.4855 25.1333 72.6455 25.56 72.9655 25.944C73.2855 26.328 73.8082 26.52 74.5335 26.52C75.3442 26.52 76.1122 26.3493 76.8375 26.008C77.5842 25.6453 78.2882 25.2187 78.9495 24.728C78.9922 24.6853 79.0562 24.664 79.1415 24.664C79.3548 24.664 79.4615 24.7707 79.4615 24.984C79.4615 25.0907 79.4188 25.176 79.3335 25.24C78.6508 25.752 77.9148 26.2 77.1255 26.584C76.3362 26.968 75.4722 27.16 74.5335 27.16ZM68.4215 27.128C67.7175 27.128 67.0882 26.8933 66.5335 26.424C66.0002 25.9547 65.7548 25.2293 65.7975 24.248C65.7975 24.056 65.9042 23.96 66.1175 23.96C66.2028 23.96 66.2882 23.992 66.3735 24.056C66.4375 24.0987 66.4588 24.1733 66.4375 24.28C66.4162 25.048 66.6082 25.6133 67.0135 25.976C67.4188 26.3173 67.8882 26.488 68.4215 26.488C68.8482 26.488 69.2748 26.392 69.7015 26.2C70.1282 25.9867 70.4802 25.688 70.7575 25.304C70.8215 25.2187 70.9068 25.176 71.0135 25.176C71.1202 25.176 71.2162 25.2293 71.3015 25.336C71.3868 25.4427 71.3762 25.56 71.2695 25.688C70.9282 26.1573 70.5015 26.52 69.9895 26.776C69.4775 27.0107 68.9548 27.128 68.4215 27.128ZM81.125 21.176C81.0183 21.176 80.933 21.112 80.869 20.984C80.7837 20.856 80.7837 20.7387 80.869 20.632C81.2957 20.1413 81.6903 19.6293 82.053 19.096C82.4157 18.5627 82.7677 18.0293 83.109 17.496C83.685 16.6427 84.3143 15.7253 84.997 14.744C85.701 13.7627 86.4477 12.792 87.237 11.832C88.0477 10.872 88.8797 9.99733 89.733 9.208C90.5863 8.39733 91.4503 7.74667 92.325 7.256C93.0717 6.85067 93.7223 6.648 94.277 6.648C94.8317 6.648 95.2477 6.82933 95.525 7.192C95.8237 7.53333 95.973 7.98133 95.973 8.536C95.973 8.792 95.941 9.05867 95.877 9.336C95.8343 9.592 95.749 9.86933 95.621 10.168C95.557 10.3173 95.3117 10.648 94.885 11.16C94.4797 11.6507 93.9677 12.2587 93.349 12.984C92.7303 13.688 92.069 14.424 91.365 15.192C90.6823 15.96 90.021 16.696 89.381 17.4C88.741 18.104 88.1863 18.6907 87.717 19.16C87.269 19.6293 86.981 19.9173 86.853 20.024C86.789 20.088 86.725 20.12 86.661 20.12C86.4263 20.12 86.309 19.992 86.309 19.736C86.309 19.672 86.3517 19.5973 86.437 19.512C86.565 19.4053 86.853 19.1173 87.301 18.648C87.749 18.1787 88.293 17.6027 88.933 16.92C89.573 16.2373 90.2343 15.5227 90.917 14.776C91.5997 14.008 92.2397 13.2827 92.837 12.6C93.4557 11.896 93.9677 11.2987 94.373 10.808C94.7783 10.3173 95.0023 10.0187 95.045 9.912C95.2583 9.42133 95.365 8.952 95.365 8.504C95.365 8.14133 95.269 7.85333 95.077 7.64C94.9063 7.40533 94.6397 7.288 94.277 7.288C93.829 7.288 93.285 7.46933 92.645 7.832C91.813 8.30133 90.981 8.93067 90.149 9.72C89.317 10.488 88.5063 11.352 87.717 12.312C86.9277 13.2507 86.1917 14.2 85.509 15.16C84.8263 16.12 84.2077 17.016 83.653 17.848C83.2903 18.3813 82.9277 18.9253 82.565 19.48C82.2023 20.0347 81.8077 20.5573 81.381 21.048C81.317 21.1333 81.2317 21.176 81.125 21.176ZM84.421 25.016C83.7597 25.016 83.2903 24.8773 83.013 24.6C82.757 24.3227 82.629 23.9813 82.629 23.576C82.629 23.1493 82.725 22.6907 82.917 22.2C83.1303 21.688 83.3437 21.2507 83.557 20.888C83.877 20.3333 84.3143 19.672 84.869 18.904C85.4237 18.136 86.0317 17.336 86.693 16.504C87.3757 15.6507 88.0583 14.8293 88.741 14.04C89.445 13.2507 90.1063 12.5573 90.725 11.96C91.3437 11.3413 91.8557 10.8827 92.261 10.584C92.3037 10.5413 92.3677 10.52 92.453 10.52C92.6663 10.52 92.773 10.6267 92.773 10.84C92.773 10.9467 92.7303 11.032 92.645 11.096C92.2397 11.3733 91.7383 11.8107 91.141 12.408C90.5437 13.0053 89.9037 13.6987 89.221 14.488C88.5383 15.256 87.8557 16.056 87.173 16.888C86.5117 17.72 85.9037 18.5093 85.349 19.256C84.8157 20.0027 84.3997 20.6533 84.101 21.208C83.9517 21.4853 83.7703 21.8373 83.557 22.264C83.3437 22.6907 83.237 23.0853 83.237 23.448C83.237 23.7253 83.3223 23.9493 83.493 24.12C83.6637 24.2907 83.973 24.376 84.421 24.376C84.997 24.376 85.6583 24.2373 86.405 23.96C87.173 23.6827 87.9517 23.2667 88.741 22.712C89.5303 22.136 90.2557 21.432 90.917 20.6C90.981 20.5147 91.0557 20.472 91.141 20.472C91.269 20.472 91.365 20.536 91.429 20.664C91.5143 20.7707 91.5037 20.888 91.397 21.016C90.7143 21.8907 89.957 22.6267 89.125 23.224C88.293 23.8213 87.461 24.2693 86.629 24.568C85.8183 24.8667 85.0823 25.016 84.421 25.016ZM84.133 27C83.0663 27 82.1597 26.776 81.413 26.328C80.6877 25.8587 80.325 25.176 80.325 24.28C80.325 24.0453 80.4317 23.928 80.645 23.928C80.8583 23.928 80.965 24.0453 80.965 24.28C80.965 24.8773 81.2743 25.3787 81.893 25.784C82.533 26.168 83.3437 26.36 84.325 26.36C85.1357 26.36 86.021 26.1893 86.981 25.848C87.9623 25.5067 88.9223 24.9413 89.861 24.152C89.9037 24.1093 89.9677 24.088 90.053 24.088C90.2663 24.088 90.373 24.1947 90.373 24.408C90.373 24.5147 90.3303 24.6 90.245 24.664C89.3277 25.4533 88.325 26.04 87.237 26.424C86.149 26.808 85.1143 27 84.133 27ZM91.1562 21.176C91.0496 21.176 90.9642 21.112 90.9002 20.984C90.8149 20.856 90.8149 20.7387 90.9002 20.632C91.3269 20.1413 91.7216 19.6293 92.0843 19.096C92.4469 18.5627 92.7989 18.0293 93.1403 17.496C93.7163 16.6427 94.3456 15.7253 95.0283 14.744C95.7323 13.7627 96.4789 12.792 97.2683 11.832C98.0789 10.872 98.9109 9.99733 99.7643 9.208C100.618 8.39733 101.482 7.74667 102.356 7.256C103.103 6.85067 103.754 6.648 104.308 6.648C104.863 6.648 105.279 6.82933 105.556 7.192C105.855 7.53333 106.004 7.98133 106.004 8.536C106.004 8.792 105.972 9.05867 105.908 9.336C105.866 9.592 105.78 9.86933 105.652 10.168C105.588 10.3173 105.343 10.648 104.916 11.16C104.511 11.6507 103.999 12.2587 103.38 12.984C102.762 13.688 102.1 14.424 101.396 15.192C100.714 15.96 100.052 16.696 99.4123 17.4C98.7723 18.104 98.2176 18.6907 97.7483 19.16C97.3003 19.6293 97.0123 19.9173 96.8843 20.024C96.8203 20.088 96.7563 20.12 96.6923 20.12C96.4576 20.12 96.3403 19.992 96.3403 19.736C96.3403 19.672 96.3829 19.5973 96.4683 19.512C96.5963 19.4053 96.8843 19.1173 97.3323 18.648C97.7803 18.1787 98.3243 17.6027 98.9643 16.92C99.6043 16.2373 100.266 15.5227 100.948 14.776C101.631 14.008 102.271 13.2827 102.868 12.6C103.487 11.896 103.999 11.2987 104.404 10.808C104.81 10.3173 105.034 10.0187 105.076 9.912C105.29 9.42133 105.396 8.952 105.396 8.504C105.396 8.14133 105.3 7.85333 105.108 7.64C104.938 7.40533 104.671 7.288 104.308 7.288C103.86 7.288 103.316 7.46933 102.676 7.832C101.844 8.30133 101.012 8.93067 100.18 9.72C99.3483 10.488 98.5376 11.352 97.7483 12.312C96.9589 13.2507 96.2229 14.2 95.5403 15.16C94.8576 16.12 94.2389 17.016 93.6843 17.848C93.3216 18.3813 92.9589 18.9253 92.5963 19.48C92.2336 20.0347 91.8389 20.5573 91.4123 21.048C91.3483 21.1333 91.2629 21.176 91.1562 21.176ZM94.4523 25.016C93.7909 25.016 93.3216 24.8773 93.0443 24.6C92.7883 24.3227 92.6603 23.9813 92.6603 23.576C92.6603 23.1493 92.7563 22.6907 92.9483 22.2C93.1616 21.688 93.3749 21.2507 93.5883 20.888C93.9083 20.3333 94.3456 19.672 94.9003 18.904C95.4549 18.136 96.0629 17.336 96.7243 16.504C97.4069 15.6507 98.0896 14.8293 98.7723 14.04C99.4763 13.2507 100.138 12.5573 100.756 11.96C101.375 11.3413 101.887 10.8827 102.292 10.584C102.335 10.5413 102.399 10.52 102.484 10.52C102.698 10.52 102.804 10.6267 102.804 10.84C102.804 10.9467 102.762 11.032 102.676 11.096C102.271 11.3733 101.77 11.8107 101.172 12.408C100.575 13.0053 99.9349 13.6987 99.2523 14.488C98.5696 15.256 97.8869 16.056 97.2043 16.888C96.5429 17.72 95.9349 18.5093 95.3802 19.256C94.8469 20.0027 94.4309 20.6533 94.1323 21.208C93.9829 21.4853 93.8016 21.8373 93.5883 22.264C93.3749 22.6907 93.2682 23.0853 93.2682 23.448C93.2682 23.7253 93.3536 23.9493 93.5243 24.12C93.6949 24.2907 94.0043 24.376 94.4523 24.376C95.0283 24.376 95.6896 24.2373 96.4363 23.96C97.2043 23.6827 97.9829 23.2667 98.7723 22.712C99.5616 22.136 100.287 21.432 100.948 20.6C101.012 20.5147 101.087 20.472 101.172 20.472C101.3 20.472 101.396 20.536 101.46 20.664C101.546 20.7707 101.535 20.888 101.428 21.016C100.746 21.8907 99.9883 22.6267 99.1562 23.224C98.3243 23.8213 97.4923 24.2693 96.6603 24.568C95.8496 24.8667 95.1136 25.016 94.4523 25.016ZM94.1643 27C93.0976 27 92.1909 26.776 91.4443 26.328C90.7189 25.8587 90.3562 25.176 90.3562 24.28C90.3562 24.0453 90.4629 23.928 90.6762 23.928C90.8896 23.928 90.9962 24.0453 90.9962 24.28C90.9962 24.8773 91.3056 25.3787 91.9243 25.784C92.5643 26.168 93.3749 26.36 94.3563 26.36C95.1669 26.36 96.0523 26.1893 97.0123 25.848C97.9936 25.5067 98.9536 24.9413 99.8923 24.152C99.9349 24.1093 99.9989 24.088 100.084 24.088C100.298 24.088 100.404 24.1947 100.404 24.408C100.404 24.5147 100.362 24.6 100.276 24.664C99.3589 25.4533 98.3563 26.04 97.2683 26.424C96.1803 26.808 95.1456 27 94.1643 27ZM105.188 22.072C104.804 22.072 104.473 21.9867 104.196 21.816C104.068 21.752 104.004 21.6667 104.004 21.56C104.004 21.4533 104.046 21.368 104.132 21.304C104.238 21.2187 104.356 21.208 104.484 21.272C104.74 21.3787 104.974 21.432 105.188 21.432C105.636 21.432 106.126 21.304 106.66 21.048C107.193 20.7707 107.705 20.4187 108.196 19.992C108.686 19.5653 109.081 19.1067 109.38 18.616C109.7 18.1253 109.86 17.656 109.86 17.208C109.86 16.3333 109.412 15.896 108.516 15.896C107.513 15.896 106.574 16.1627 105.7 16.696C104.846 17.208 104.057 17.8587 103.332 18.648C102.628 19.416 101.998 20.2053 101.444 21.016C101.38 21.1227 101.294 21.176 101.188 21.176C101.081 21.176 100.995 21.1227 100.931 21.016C100.846 20.9093 100.846 20.792 100.931 20.664C101.486 19.8533 102.137 19.032 102.884 18.2C103.63 17.368 104.473 16.6747 105.411 16.12C106.372 15.544 107.406 15.256 108.516 15.256C109.092 15.256 109.561 15.4267 109.924 15.768C110.308 16.1093 110.5 16.5893 110.5 17.208C110.5 17.784 110.318 18.36 109.956 18.936C109.614 19.4907 109.166 20.0133 108.612 20.504C108.078 20.9733 107.502 21.3573 106.884 21.656C106.265 21.9333 105.7 22.072 105.188 22.072ZM104.452 25.048C103.876 25.048 103.342 24.8987 102.852 24.6C102.382 24.3013 102.148 23.7893 102.148 23.064C102.148 22.4667 102.361 21.8267 102.788 21.144C103.236 20.4613 103.78 19.8107 104.42 19.192C105.081 18.552 105.753 17.9973 106.436 17.528C107.118 17.0587 107.705 16.7493 108.196 16.6C108.217 16.6 108.228 16.6 108.228 16.6C108.249 16.5787 108.27 16.568 108.292 16.568C108.505 16.568 108.612 16.6853 108.612 16.92C108.612 17.048 108.537 17.144 108.388 17.208C107.918 17.3573 107.364 17.656 106.724 18.104C106.105 18.552 105.486 19.0747 104.868 19.672C104.27 20.248 103.769 20.8347 103.364 21.432C102.98 22.0293 102.788 22.5733 102.788 23.064C102.788 23.5333 102.937 23.8747 103.236 24.088C103.556 24.3013 103.961 24.408 104.452 24.408C105.71 24.408 106.98 24.0773 108.26 23.416C109.561 22.7333 110.67 21.7947 111.588 20.6C111.652 20.5147 111.726 20.472 111.812 20.472C111.94 20.472 112.036 20.536 112.1 20.664C112.185 20.7707 112.174 20.888 112.068 21.016C111.108 22.2533 109.934 23.2347 108.548 23.96C107.182 24.6853 105.817 25.048 104.452 25.048ZM104.292 26.968C103.737 26.968 103.172 26.8827 102.596 26.712C102.02 26.5413 101.54 26.264 101.155 25.88C100.75 25.4747 100.547 24.9413 100.547 24.28C100.547 24.0453 100.654 23.928 100.867 23.928C101.081 23.928 101.188 24.0453 101.188 24.28C101.188 24.6853 101.262 25.0053 101.412 25.24C101.582 25.4747 101.87 25.688 102.276 25.88C102.596 26.0293 102.937 26.1467 103.299 26.232C103.684 26.296 104.014 26.328 104.292 26.328C105.081 26.328 105.849 26.1787 106.596 25.88C107.364 25.5813 108.068 25.1973 108.708 24.728C108.75 24.6853 108.814 24.664 108.9 24.664C109.113 24.664 109.22 24.7707 109.22 24.984C109.22 25.0907 109.177 25.176 109.092 25.24C108.409 25.752 107.652 26.168 106.82 26.488C106.009 26.808 105.166 26.968 104.292 26.968ZM116.485 25.016C116.143 25.016 115.898 24.888 115.749 24.632C115.621 24.376 115.535 24.1093 115.493 23.832C115.45 23.2773 115.493 22.5947 115.621 21.784C115.749 20.952 115.973 20.0667 116.293 19.128C116.613 18.1893 117.05 17.2827 117.605 16.408C117.647 16.3227 117.626 16.1947 117.541 16.024C117.455 15.832 117.21 15.6933 116.805 15.608C116.741 15.5867 116.677 15.576 116.613 15.576C116.549 15.5547 116.474 15.544 116.389 15.544C116.111 15.544 115.823 15.6293 115.525 15.8C115.247 15.9493 114.991 16.2267 114.757 16.632C114.479 17.1013 114.095 17.7627 113.605 18.616C113.135 19.4693 112.623 20.2693 112.069 21.016C112.005 21.1013 111.919 21.144 111.812 21.144C111.706 21.144 111.62 21.0907 111.556 20.984C111.471 20.8773 111.471 20.76 111.556 20.632C112.111 19.8853 112.623 19.096 113.093 18.264C113.562 17.432 113.925 16.7813 114.181 16.312C114.479 15.8 114.821 15.4373 115.205 15.224C115.589 15.0107 115.983 14.904 116.389 14.904C116.901 14.904 117.349 15.0427 117.733 15.32C118.117 15.576 118.309 15.8853 118.309 16.248C118.309 16.3973 118.255 16.5573 118.149 16.728C117.423 17.9013 116.901 19.096 116.581 20.312C116.261 21.528 116.101 22.5307 116.101 23.32C116.101 23.7253 116.133 24.0027 116.197 24.152C116.282 24.3013 116.389 24.376 116.516 24.376C116.709 24.376 116.922 24.2693 117.157 24.056C117.413 23.8213 117.626 23.5867 117.797 23.352C117.989 23.096 118.095 22.9467 118.117 22.904C118.479 22.392 118.842 21.7413 119.205 20.952C119.567 20.1627 119.909 19.352 120.229 18.52C120.549 17.688 120.826 16.9733 121.061 16.376C121.231 15.9067 121.551 15.5547 122.021 15.32C122.49 15.064 122.959 14.936 123.429 14.936C123.834 14.936 124.175 15.032 124.453 15.224C124.751 15.416 124.901 15.7253 124.901 16.152C124.901 16.2373 124.901 16.3227 124.901 16.408C124.901 16.472 124.879 16.5573 124.837 16.664C124.794 16.856 124.677 17.2293 124.485 17.784C124.293 18.3387 124.079 18.9467 123.845 19.608C123.61 20.248 123.397 20.824 123.205 21.336C123.013 21.8267 122.895 22.1253 122.853 22.232C122.789 22.36 122.703 22.424 122.597 22.424C122.49 22.424 122.394 22.3813 122.309 22.296C122.245 22.2107 122.234 22.104 122.277 21.976C122.319 21.8693 122.426 21.5707 122.597 21.08C122.789 20.568 122.991 20.0027 123.205 19.384C123.439 18.744 123.653 18.1573 123.845 17.624C124.037 17.0693 124.154 16.7067 124.197 16.536C124.218 16.4507 124.229 16.344 124.229 16.216C124.229 15.9813 124.154 15.8213 124.005 15.736C123.855 15.6293 123.674 15.576 123.461 15.576C123.119 15.576 122.757 15.6827 122.373 15.896C122.01 16.088 121.765 16.3333 121.637 16.632C121.509 16.9733 121.317 17.4853 121.061 18.168C120.805 18.8293 120.506 19.5547 120.165 20.344C119.845 21.112 119.482 21.8587 119.077 22.584C118.671 23.288 118.245 23.8747 117.797 24.344C117.37 24.792 116.933 25.016 116.485 25.016ZM111.588 23.96C111.46 23.96 111.364 23.896 111.3 23.768C111.215 23.64 111.236 23.5227 111.364 23.416C112.175 22.6267 112.794 21.8907 113.221 21.208C113.669 20.5253 114.159 19.7147 114.693 18.776C114.757 18.6693 114.853 18.616 114.981 18.616C115.087 18.616 115.183 18.6693 115.269 18.776C115.354 18.8613 115.354 18.968 115.269 19.096C114.735 20.056 114.234 20.888 113.765 21.592C113.295 22.296 112.645 23.0533 111.812 23.864C111.748 23.928 111.674 23.96 111.588 23.96ZM110.244 36.632C109.732 36.632 109.252 36.4827 108.804 36.184C108.335 35.9067 108.143 35.4267 108.228 34.744C108.228 34.552 108.324 34.456 108.516 34.456C108.602 34.456 108.687 34.488 108.772 34.552C108.836 34.616 108.858 34.7013 108.836 34.808C108.794 35.2133 108.911 35.512 109.188 35.704C109.444 35.896 109.796 35.992 110.244 35.992C111.29 35.992 112.303 35.7253 113.285 35.192C114.266 34.68 115.183 33.9867 116.036 33.112C116.911 32.2373 117.711 31.2667 118.437 30.2C119.183 29.1333 119.823 28.056 120.357 26.968C120.911 25.88 121.359 24.8773 121.701 23.96C121.765 23.8533 121.903 23.736 122.117 23.608C122.842 23.224 123.546 22.7973 124.229 22.328C124.933 21.8587 125.53 21.2933 126.021 20.632C126.085 20.5253 126.17 20.472 126.277 20.472C126.383 20.472 126.479 20.536 126.565 20.664C126.65 20.792 126.639 20.9093 126.533 21.016C125.914 21.848 125.21 22.5093 124.421 23C123.653 23.4907 122.927 23.9173 122.245 24.28C121.903 25.1973 121.455 26.2107 120.901 27.32C120.346 28.4293 119.685 29.528 118.917 30.616C118.17 31.704 117.338 32.696 116.421 33.592C115.525 34.5093 114.554 35.2453 113.509 35.8C112.463 36.3547 111.375 36.632 110.244 36.632ZM116.197 27.128C115.493 27.128 114.917 26.9573 114.469 26.616C114.042 26.2747 113.733 25.8373 113.541 25.304C113.349 24.7707 113.263 24.2373 113.285 23.704C113.285 23.4907 113.391 23.384 113.605 23.384C113.818 23.384 113.924 23.4907 113.924 23.704C113.903 24.4507 114.074 25.1013 114.437 25.656C114.821 26.2107 115.407 26.488 116.197 26.488C116.709 26.488 117.253 26.2213 117.829 25.688C118.405 25.1547 118.97 24.4613 119.525 23.608C120.101 22.7547 120.623 21.848 121.093 20.888C121.157 20.76 121.253 20.696 121.381 20.696C121.487 20.696 121.573 20.7387 121.637 20.824C121.722 20.9093 121.733 21.016 121.669 21.144C121.221 22.0613 120.698 22.9893 120.101 23.928C119.503 24.8453 118.874 25.6133 118.213 26.232C117.551 26.8293 116.879 27.128 116.197 27.128ZM110.404 34.392C110.127 34.392 109.85 34.3067 109.572 34.136C109.274 33.9867 109.124 33.7307 109.124 33.368C109.124 33.304 109.135 33.24 109.156 33.176C109.156 33.112 109.167 33.048 109.188 32.984C109.295 32.6 109.572 32.1627 110.02 31.672C110.447 31.2027 110.97 30.7227 111.588 30.232C112.207 29.7627 112.815 29.3467 113.413 28.984C114.031 28.6213 114.543 28.3653 114.949 28.216C114.97 28.1947 115.013 28.184 115.077 28.184C115.29 28.184 115.397 28.3013 115.397 28.536C115.397 28.6427 115.333 28.728 115.205 28.792C114.821 28.9413 114.341 29.1867 113.765 29.528C113.21 29.8693 112.634 30.2533 112.037 30.68C111.46 31.128 110.97 31.5653 110.564 31.992C110.138 32.44 109.882 32.824 109.796 33.144C109.796 33.1653 109.796 33.1867 109.796 33.208C109.775 33.2507 109.764 33.2827 109.764 33.304C109.764 33.6027 109.967 33.752 110.372 33.752C110.97 33.752 111.631 33.528 112.357 33.08C113.103 32.6533 113.85 32.088 114.597 31.384C115.343 30.7013 116.026 29.9867 116.645 29.24C117.285 28.4933 117.786 27.8 118.149 27.16C118.213 27.0533 118.309 27 118.437 27C118.543 27 118.639 27.0427 118.725 27.128C118.81 27.2347 118.81 27.352 118.725 27.48C118.362 28.12 117.85 28.8347 117.189 29.624C116.549 30.4133 115.823 31.1707 115.013 31.896C114.223 32.6213 113.423 33.2187 112.613 33.688C111.823 34.1573 111.087 34.392 110.404 34.392Z" fill="#00C950"/>
</svg>
